<svg width="156" height="31" viewBox="0 0 156 31" fill="none" xmlns="http://www.w3.org/2000/svg">
<rect x="0.5" y="1" width="155" height="29" rx="4.5" fill="#1C1C1C"/>
<g clip-path="url(#clip0_87_2423)">
<path d="M19.1825 22.5142C18.8152 22.9839 18.0706 22.7265 18.0617 22.1269L17.9323 13.3564H23.7403C24.7923 13.3564 25.3791 14.5901 24.7249 15.4266L19.1825 22.5142Z" fill="url(#paint0_linear_87_2423)"/>
<path d="M19.1825 22.5142C18.8152 22.9839 18.0706 22.7265 18.0617 22.1269L17.9323 13.3564H23.7403C24.7923 13.3564 25.3791 14.5901 24.7249 15.4266L19.1825 22.5142Z" fill="url(#paint1_linear_87_2423)" fill-opacity="0.2"/>
<path d="M16.8204 8.4017C17.1877 7.93203 17.9324 8.18937 17.9412 8.78903L17.9979 17.5596H12.2626C11.2106 17.5596 10.6238 16.3258 11.278 15.4893L16.8204 8.4017Z" fill="#3ECF8E"/>
</g>
<path d="M38.1776 20.695C35.7986 20.695 33.6016 18.966 33.6016 15.885C33.6016 12.804 35.8896 11.088 38.1776 11.088C40.2836 11.088 41.7656 12.232 42.2336 14.013L41.0506 14.429C40.6996 13.038 39.6856 12.258 38.1776 12.258C36.5006 12.258 34.9016 13.48 34.9016 15.885C34.9016 18.29 36.5006 19.525 38.1776 19.525C39.7506 19.525 40.7386 18.576 41.1156 17.315L42.2466 17.731C41.7526 19.46 40.2966 20.695 38.1776 20.695ZM46.2307 19.603C47.2707 19.603 48.1807 18.823 48.1807 17.367C48.1807 15.924 47.2707 15.144 46.2307 15.144C45.1907 15.144 44.2807 15.924 44.2807 17.367C44.2807 18.823 45.1907 19.603 46.2307 19.603ZM46.2307 14.052C48.1027 14.052 49.4287 15.469 49.4287 17.367C49.4287 19.278 48.1027 20.695 46.2307 20.695C44.3587 20.695 43.0327 19.278 43.0327 17.367C43.0327 15.469 44.3587 14.052 46.2307 14.052ZM52.2141 16.886V20.5H50.9921V14.247H52.1881V15.144C52.6431 14.364 53.3841 14.065 54.1121 14.065C55.6071 14.065 56.3481 15.144 56.3481 16.535V20.5H55.1261V16.743C55.1261 15.872 54.7621 15.17 53.6701 15.17C52.7081 15.17 52.2141 15.937 52.2141 16.886ZM59.514 16.886V20.5H58.292V14.247H59.488V15.144C59.943 14.364 60.684 14.065 61.412 14.065C62.907 14.065 63.648 15.144 63.648 16.535V20.5H62.426V16.743C62.426 15.872 62.062 15.17 60.97 15.17C60.008 15.17 59.514 15.937 59.514 16.886ZM66.3848 16.73H69.8038C69.7778 15.833 69.1928 15.131 68.0878 15.131C67.0608 15.131 66.4368 15.924 66.3848 16.73ZM69.9858 18.355L71.0388 18.719C70.6878 19.824 69.6868 20.695 68.2308 20.695C66.5538 20.695 65.0848 19.473 65.0848 17.354C65.0848 15.391 66.5018 14.052 68.0748 14.052C69.9988 14.052 71.0778 15.378 71.0778 17.328C71.0778 17.484 71.0648 17.64 71.0518 17.718H66.3458C66.3718 18.836 67.1778 19.616 68.2308 19.616C69.2448 19.616 69.7518 19.057 69.9858 18.355ZM75.2637 15.183C74.2757 15.183 73.3657 15.911 73.3657 17.367C73.3657 18.797 74.2627 19.564 75.2767 19.564C76.4467 19.564 76.8757 18.771 77.0187 18.277L78.0977 18.745C77.7987 19.642 76.9017 20.695 75.2767 20.695C73.4567 20.695 72.1177 19.265 72.1177 17.367C72.1177 15.417 73.4827 14.052 75.2637 14.052C76.9277 14.052 77.7857 15.092 78.0457 16.041L76.9407 16.509C76.7847 15.898 76.3297 15.183 75.2637 15.183ZM81.1692 12.271V14.247H82.5212V15.352H81.1692V18.602C81.1692 19.174 81.4032 19.46 82.0402 19.46C82.1962 19.46 82.4172 19.434 82.5212 19.408V20.448C82.4172 20.487 82.1052 20.565 81.6892 20.565C80.6232 20.565 79.9472 19.915 79.9472 18.784V15.352H78.7512V14.247H79.0892C79.7652 14.247 80.0512 13.831 80.0512 13.285V12.271H81.1692ZM93.4083 13.376L92.2643 13.779C92.1603 13.116 91.6013 12.206 90.3143 12.206C89.2743 12.206 88.5333 12.882 88.5333 13.74C88.5333 14.403 88.9363 14.91 89.7163 15.079L91.0943 15.378C92.6283 15.716 93.4863 16.678 93.4863 17.965C93.4863 19.395 92.2643 20.695 90.3013 20.695C88.0783 20.695 87.0253 19.265 86.8563 17.952L88.0783 17.562C88.1693 18.589 88.8973 19.538 90.2883 19.538C91.5623 19.538 92.1863 18.875 92.1863 18.069C92.1863 17.406 91.7313 16.834 90.8083 16.639L89.4953 16.353C88.1823 16.067 87.2463 15.209 87.2463 13.831C87.2463 12.388 88.5853 11.088 90.2883 11.088C92.3683 11.088 93.2003 12.375 93.4083 13.376ZM98.8993 19.746C98.5613 20.396 97.7813 20.695 97.0533 20.695C95.5973 20.695 94.7133 19.603 94.7133 18.186V14.247H95.9353V18.004C95.9353 18.862 96.3253 19.616 97.3523 19.616C98.3403 19.616 98.8343 18.966 98.8343 18.017V14.247H100.056V19.343C100.056 19.837 100.095 20.279 100.121 20.5H98.9513C98.9253 20.357 98.8993 20.006 98.8993 19.746ZM103.351 22.97H102.142V14.247H103.325V15.222C103.663 14.598 104.404 14.104 105.418 14.104C107.29 14.104 108.291 15.547 108.291 17.367C108.291 19.226 107.212 20.669 105.379 20.669C104.417 20.669 103.689 20.214 103.351 19.655V22.97ZM107.043 17.367C107.043 16.119 106.341 15.183 105.197 15.183C104.079 15.183 103.338 16.119 103.338 17.367C103.338 18.654 104.079 19.577 105.197 19.577C106.328 19.577 107.043 18.654 107.043 17.367ZM109.458 18.823C109.458 17.705 110.277 17.081 111.356 16.925L113.046 16.678C113.423 16.626 113.527 16.431 113.527 16.21C113.527 15.599 113.124 15.092 112.175 15.092C111.317 15.092 110.836 15.625 110.758 16.353L109.588 16.08C109.718 14.884 110.797 14.052 112.149 14.052C114.021 14.052 114.749 15.118 114.749 16.34V19.473C114.749 20.019 114.801 20.344 114.827 20.5H113.631C113.605 20.344 113.566 20.11 113.566 19.655C113.293 20.097 112.669 20.695 111.551 20.695C110.277 20.695 109.458 19.811 109.458 18.823ZM111.72 19.668C112.721 19.668 113.527 19.187 113.527 17.822V17.536L111.616 17.822C111.096 17.9 110.706 18.199 110.706 18.758C110.706 19.226 111.096 19.668 111.72 19.668ZM117.861 20.5H116.652V11.088H117.861V15.131C118.16 14.572 118.888 14.065 119.928 14.065C121.826 14.065 122.801 15.521 122.801 17.341C122.801 19.2 121.748 20.669 119.889 20.669C118.966 20.669 118.251 20.266 117.861 19.59V20.5ZM121.553 17.341C121.553 15.989 120.838 15.144 119.707 15.144C118.628 15.144 117.848 15.989 117.848 17.341C117.848 18.693 118.628 19.577 119.707 19.577C120.825 19.577 121.553 18.693 121.553 17.341ZM123.968 18.823C123.968 17.705 124.787 17.081 125.866 16.925L127.556 16.678C127.933 16.626 128.037 16.431 128.037 16.21C128.037 15.599 127.634 15.092 126.685 15.092C125.827 15.092 125.346 15.625 125.268 16.353L124.098 16.08C124.228 14.884 125.307 14.052 126.659 14.052C128.531 14.052 129.259 15.118 129.259 16.34V19.473C129.259 20.019 129.311 20.344 129.337 20.5H128.141C128.115 20.344 128.076 20.11 128.076 19.655C127.803 20.097 127.179 20.695 126.061 20.695C124.787 20.695 123.968 19.811 123.968 18.823ZM126.23 19.668C127.231 19.668 128.037 19.187 128.037 17.822V17.536L126.126 17.822C125.606 17.9 125.216 18.199 125.216 18.758C125.216 19.226 125.606 19.668 126.23 19.668ZM130.578 18.875L131.683 18.485C131.761 19.135 132.255 19.655 133.139 19.655C133.828 19.655 134.205 19.265 134.205 18.823C134.205 18.433 133.919 18.134 133.399 18.017L132.333 17.783C131.358 17.575 130.773 16.912 130.773 16.028C130.773 14.962 131.774 14.052 132.996 14.052C134.712 14.052 135.245 15.17 135.375 15.729L134.296 16.132C134.244 15.807 133.984 15.092 132.996 15.092C132.372 15.092 131.956 15.495 131.956 15.924C131.956 16.301 132.19 16.574 132.671 16.678L133.685 16.899C134.816 17.146 135.414 17.835 135.414 18.758C135.414 19.642 134.673 20.695 133.126 20.695C131.41 20.695 130.682 19.59 130.578 18.875ZM137.771 16.73H141.19C141.164 15.833 140.579 15.131 139.474 15.131C138.447 15.131 137.823 15.924 137.771 16.73ZM141.372 18.355L142.425 18.719C142.074 19.824 141.073 20.695 139.617 20.695C137.94 20.695 136.471 19.473 136.471 17.354C136.471 15.391 137.888 14.052 139.461 14.052C141.385 14.052 142.464 15.378 142.464 17.328C142.464 17.484 142.451 17.64 142.438 17.718H137.732C137.758 18.836 138.564 19.616 139.617 19.616C140.631 19.616 141.138 19.057 141.372 18.355Z" fill="#EDEDED"/>
<rect x="0.5" y="1" width="155" height="29" rx="4.5" stroke="#2E2E2E"/>
<defs>
<linearGradient id="paint0_linear_87_2423" x1="17.9323" y1="15.301" x2="23.1176" y2="17.4428" gradientUnits="userSpaceOnUse">
<stop stop-color="#249361"/>
<stop offset="1" stop-color="#3ECF8E"/>
</linearGradient>
<linearGradient id="paint1_linear_87_2423" x1="15.6438" y1="12.1194" x2="18.0544" y2="16.5886" gradientUnits="userSpaceOnUse">
<stop/>
<stop offset="1" stop-opacity="0"/>
</linearGradient>
<clipPath id="clip0_87_2423">
<rect width="14" height="14.7368" fill="white" transform="translate(11 8.13159)"/>
</clipPath>
</defs>
</svg>
