<svg width="156" height="31" viewBox="0 0 156 31" fill="none" xmlns="http://www.w3.org/2000/svg">
<rect x="0.5" y="0.82959" width="155" height="29" rx="4.5" fill="#F1F3F5"/>
<g clip-path="url(#clip0_87_2434)">
<path d="M19.1825 22.3438C18.8152 22.8134 18.0706 22.5561 18.0617 21.9565L17.9323 13.1859H23.7403C24.7923 13.1859 25.3791 14.4197 24.7249 15.2562L19.1825 22.3438Z" fill="url(#paint0_linear_87_2434)"/>
<path d="M19.1825 22.3438C18.8152 22.8134 18.0706 22.5561 18.0617 21.9565L17.9323 13.1859H23.7403C24.7923 13.1859 25.3791 14.4197 24.7249 15.2562L19.1825 22.3438Z" fill="url(#paint1_linear_87_2434)" fill-opacity="0.2"/>
<path d="M16.8204 8.23129C17.1877 7.76162 17.9324 8.01896 17.9412 8.61862L17.9979 17.3892H12.2626C11.2106 17.3892 10.6238 16.1554 11.278 15.3189L16.8204 8.23129Z" fill="#3ECF8E"/>
</g>
<path d="M38.1776 20.5246C35.7986 20.5246 33.6016 18.7956 33.6016 15.7146C33.6016 12.6336 35.8896 10.9176 38.1776 10.9176C40.2836 10.9176 41.7656 12.0616 42.2336 13.8426L41.0506 14.2586C40.6996 12.8676 39.6856 12.0876 38.1776 12.0876C36.5006 12.0876 34.9016 13.3096 34.9016 15.7146C34.9016 18.1196 36.5006 19.3546 38.1776 19.3546C39.7506 19.3546 40.7386 18.4056 41.1156 17.1446L42.2466 17.5606C41.7526 19.2896 40.2966 20.5246 38.1776 20.5246ZM46.2307 19.4326C47.2707 19.4326 48.1807 18.6526 48.1807 17.1966C48.1807 15.7536 47.2707 14.9736 46.2307 14.9736C45.1907 14.9736 44.2807 15.7536 44.2807 17.1966C44.2807 18.6526 45.1907 19.4326 46.2307 19.4326ZM46.2307 13.8816C48.1027 13.8816 49.4287 15.2986 49.4287 17.1966C49.4287 19.1076 48.1027 20.5246 46.2307 20.5246C44.3587 20.5246 43.0327 19.1076 43.0327 17.1966C43.0327 15.2986 44.3587 13.8816 46.2307 13.8816ZM52.2141 16.7156V20.3296H50.9921V14.0766H52.1881V14.9736C52.6431 14.1936 53.3841 13.8946 54.1121 13.8946C55.6071 13.8946 56.3481 14.9736 56.3481 16.3646V20.3296H55.1261V16.5726C55.1261 15.7016 54.7621 14.9996 53.6701 14.9996C52.7081 14.9996 52.2141 15.7666 52.2141 16.7156ZM59.514 16.7156V20.3296H58.292V14.0766H59.488V14.9736C59.943 14.1936 60.684 13.8946 61.412 13.8946C62.907 13.8946 63.648 14.9736 63.648 16.3646V20.3296H62.426V16.5726C62.426 15.7016 62.062 14.9996 60.97 14.9996C60.008 14.9996 59.514 15.7666 59.514 16.7156ZM66.3848 16.5596H69.8038C69.7778 15.6626 69.1928 14.9606 68.0878 14.9606C67.0608 14.9606 66.4368 15.7536 66.3848 16.5596ZM69.9858 18.1846L71.0388 18.5486C70.6878 19.6536 69.6868 20.5246 68.2308 20.5246C66.5538 20.5246 65.0848 19.3026 65.0848 17.1836C65.0848 15.2206 66.5018 13.8816 68.0748 13.8816C69.9988 13.8816 71.0778 15.2076 71.0778 17.1576C71.0778 17.3136 71.0648 17.4696 71.0518 17.5476H66.3458C66.3718 18.6656 67.1778 19.4456 68.2308 19.4456C69.2448 19.4456 69.7518 18.8866 69.9858 18.1846ZM75.2637 15.0126C74.2757 15.0126 73.3657 15.7406 73.3657 17.1966C73.3657 18.6266 74.2627 19.3936 75.2767 19.3936C76.4467 19.3936 76.8757 18.6006 77.0187 18.1066L78.0977 18.5746C77.7987 19.4716 76.9017 20.5246 75.2767 20.5246C73.4567 20.5246 72.1177 19.0946 72.1177 17.1966C72.1177 15.2466 73.4827 13.8816 75.2637 13.8816C76.9277 13.8816 77.7857 14.9216 78.0457 15.8706L76.9407 16.3386C76.7847 15.7276 76.3297 15.0126 75.2637 15.0126ZM81.1692 12.1006V14.0766H82.5212V15.1816H81.1692V18.4316C81.1692 19.0036 81.4032 19.2896 82.0402 19.2896C82.1962 19.2896 82.4172 19.2636 82.5212 19.2376V20.2776C82.4172 20.3166 82.1052 20.3946 81.6892 20.3946C80.6232 20.3946 79.9472 19.7446 79.9472 18.6136V15.1816H78.7512V14.0766H79.0892C79.7652 14.0766 80.0512 13.6606 80.0512 13.1146V12.1006H81.1692ZM93.4083 13.2056L92.2643 13.6086C92.1603 12.9456 91.6013 12.0356 90.3143 12.0356C89.2743 12.0356 88.5333 12.7116 88.5333 13.5696C88.5333 14.2326 88.9363 14.7396 89.7163 14.9086L91.0943 15.2076C92.6283 15.5456 93.4863 16.5076 93.4863 17.7946C93.4863 19.2246 92.2643 20.5246 90.3013 20.5246C88.0783 20.5246 87.0253 19.0946 86.8563 17.7816L88.0783 17.3916C88.1693 18.4186 88.8973 19.3676 90.2883 19.3676C91.5623 19.3676 92.1863 18.7046 92.1863 17.8986C92.1863 17.2356 91.7313 16.6636 90.8083 16.4686L89.4953 16.1826C88.1823 15.8966 87.2463 15.0386 87.2463 13.6606C87.2463 12.2176 88.5853 10.9176 90.2883 10.9176C92.3683 10.9176 93.2003 12.2046 93.4083 13.2056ZM98.8993 19.5756C98.5613 20.2256 97.7813 20.5246 97.0533 20.5246C95.5973 20.5246 94.7133 19.4326 94.7133 18.0156V14.0766H95.9353V17.8336C95.9353 18.6916 96.3253 19.4456 97.3523 19.4456C98.3403 19.4456 98.8343 18.7956 98.8343 17.8466V14.0766H100.056V19.1726C100.056 19.6666 100.095 20.1086 100.121 20.3296H98.9513C98.9253 20.1866 98.8993 19.8356 98.8993 19.5756ZM103.351 22.7996H102.142V14.0766H103.325V15.0516C103.663 14.4276 104.404 13.9336 105.418 13.9336C107.29 13.9336 108.291 15.3766 108.291 17.1966C108.291 19.0556 107.212 20.4986 105.379 20.4986C104.417 20.4986 103.689 20.0436 103.351 19.4846V22.7996ZM107.043 17.1966C107.043 15.9486 106.341 15.0126 105.197 15.0126C104.079 15.0126 103.338 15.9486 103.338 17.1966C103.338 18.4836 104.079 19.4066 105.197 19.4066C106.328 19.4066 107.043 18.4836 107.043 17.1966ZM109.458 18.6526C109.458 17.5346 110.277 16.9106 111.356 16.7546L113.046 16.5076C113.423 16.4556 113.527 16.2606 113.527 16.0396C113.527 15.4286 113.124 14.9216 112.175 14.9216C111.317 14.9216 110.836 15.4546 110.758 16.1826L109.588 15.9096C109.718 14.7136 110.797 13.8816 112.149 13.8816C114.021 13.8816 114.749 14.9476 114.749 16.1696V19.3026C114.749 19.8486 114.801 20.1736 114.827 20.3296H113.631C113.605 20.1736 113.566 19.9396 113.566 19.4846C113.293 19.9266 112.669 20.5246 111.551 20.5246C110.277 20.5246 109.458 19.6406 109.458 18.6526ZM111.72 19.4976C112.721 19.4976 113.527 19.0166 113.527 17.6516V17.3656L111.616 17.6516C111.096 17.7296 110.706 18.0286 110.706 18.5876C110.706 19.0556 111.096 19.4976 111.72 19.4976ZM117.861 20.3296H116.652V10.9176H117.861V14.9606C118.16 14.4016 118.888 13.8946 119.928 13.8946C121.826 13.8946 122.801 15.3506 122.801 17.1706C122.801 19.0296 121.748 20.4986 119.889 20.4986C118.966 20.4986 118.251 20.0956 117.861 19.4196V20.3296ZM121.553 17.1706C121.553 15.8186 120.838 14.9736 119.707 14.9736C118.628 14.9736 117.848 15.8186 117.848 17.1706C117.848 18.5226 118.628 19.4066 119.707 19.4066C120.825 19.4066 121.553 18.5226 121.553 17.1706ZM123.968 18.6526C123.968 17.5346 124.787 16.9106 125.866 16.7546L127.556 16.5076C127.933 16.4556 128.037 16.2606 128.037 16.0396C128.037 15.4286 127.634 14.9216 126.685 14.9216C125.827 14.9216 125.346 15.4546 125.268 16.1826L124.098 15.9096C124.228 14.7136 125.307 13.8816 126.659 13.8816C128.531 13.8816 129.259 14.9476 129.259 16.1696V19.3026C129.259 19.8486 129.311 20.1736 129.337 20.3296H128.141C128.115 20.1736 128.076 19.9396 128.076 19.4846C127.803 19.9266 127.179 20.5246 126.061 20.5246C124.787 20.5246 123.968 19.6406 123.968 18.6526ZM126.23 19.4976C127.231 19.4976 128.037 19.0166 128.037 17.6516V17.3656L126.126 17.6516C125.606 17.7296 125.216 18.0286 125.216 18.5876C125.216 19.0556 125.606 19.4976 126.23 19.4976ZM130.578 18.7046L131.683 18.3146C131.761 18.9646 132.255 19.4846 133.139 19.4846C133.828 19.4846 134.205 19.0946 134.205 18.6526C134.205 18.2626 133.919 17.9636 133.399 17.8466L132.333 17.6126C131.358 17.4046 130.773 16.7416 130.773 15.8576C130.773 14.7916 131.774 13.8816 132.996 13.8816C134.712 13.8816 135.245 14.9996 135.375 15.5586L134.296 15.9616C134.244 15.6366 133.984 14.9216 132.996 14.9216C132.372 14.9216 131.956 15.3246 131.956 15.7536C131.956 16.1306 132.19 16.4036 132.671 16.5076L133.685 16.7286C134.816 16.9756 135.414 17.6646 135.414 18.5876C135.414 19.4716 134.673 20.5246 133.126 20.5246C131.41 20.5246 130.682 19.4196 130.578 18.7046ZM137.771 16.5596H141.19C141.164 15.6626 140.579 14.9606 139.474 14.9606C138.447 14.9606 137.823 15.7536 137.771 16.5596ZM141.372 18.1846L142.425 18.5486C142.074 19.6536 141.073 20.5246 139.617 20.5246C137.94 20.5246 136.471 19.3026 136.471 17.1836C136.471 15.2206 137.888 13.8816 139.461 13.8816C141.385 13.8816 142.464 15.2076 142.464 17.1576C142.464 17.3136 142.451 17.4696 142.438 17.5476H137.732C137.758 18.6656 138.564 19.4456 139.617 19.4456C140.631 19.4456 141.138 18.8866 141.372 18.1846Z" fill="#11181C"/>
<rect x="0.5" y="0.82959" width="155" height="29" rx="4.5" stroke="#E6E8EB"/>
<defs>
<linearGradient id="paint0_linear_87_2434" x1="17.9323" y1="15.1306" x2="23.1176" y2="17.2724" gradientUnits="userSpaceOnUse">
<stop stop-color="#249361"/>
<stop offset="1" stop-color="#3ECF8E"/>
</linearGradient>
<linearGradient id="paint1_linear_87_2434" x1="15.6438" y1="11.949" x2="18.0544" y2="16.4182" gradientUnits="userSpaceOnUse">
<stop/>
<stop offset="1" stop-opacity="0"/>
</linearGradient>
<clipPath id="clip0_87_2434">
<rect width="14" height="14.7368" fill="white" transform="translate(11 7.96118)"/>
</clipPath>
</defs>
</svg>
