<?xml version="1.0" encoding="UTF-8"?>
<svg version="1.1" xmlns="http://www.w3.org/2000/svg" width="256" height="256">
<path d="M0 0 C19.75875 -0.04125 39.5175 -0.0825 59.875 -0.125 C66.10101074 -0.14320801 72.32702148 -0.16141602 78.74169922 -0.18017578 C86.37719727 -0.18920898 86.37719727 -0.18920898 89.95803833 -0.19088745 C92.44510617 -0.19394735 94.93217114 -0.20095806 97.41921997 -0.21115112 C101.19864005 -0.22585911 104.97787967 -0.22780967 108.75732422 -0.22705078 C109.85491499 -0.234247 110.95250576 -0.24144321 112.08335686 -0.2488575 C120.34131801 -0.22676426 128.12712108 0.78450675 135.9375 3.5625 C136.64777344 3.81128906 137.35804688 4.06007813 138.08984375 4.31640625 C138.72019531 4.54199219 139.35054687 4.76757812 140 5 C140.99 5.33 141.98 5.66 143 6 C143 6.66 143 7.32 143 8 C143.825 8.061875 144.65 8.12375 145.5 8.1875 C149.91070886 9.21141456 153.48441302 11.13577812 157 14 C157 14.66 157 15.32 157 16 C157.721875 16.2475 158.44375 16.495 159.1875 16.75 C166.10902621 19.82623387 172.17353296 26.1882427 175.4375 33 C175.623125 33.66 175.80875 34.32 176 35 C176.66 35 177.32 35 178 35 C178.99 37.97 178.99 37.97 180 41 C180.66 41 181.32 41 182 41 C182.19335938 41.66386719 182.38671875 42.32773437 182.5859375 43.01171875 C182.84632813 43.89472656 183.10671875 44.77773438 183.375 45.6875 C183.63023437 46.55761719 183.88546875 47.42773438 184.1484375 48.32421875 C184.93819136 50.97656465 184.93819136 50.97656465 186.03515625 53.32421875 C187.31022935 56.86035266 187.67347645 60.41067077 188.0625 64.125 C188.63700282 69.63764716 188.63700282 69.63764716 190 75 C190.64585153 82.78025791 189.38464523 90.36522007 188 98 C187.855625 98.81726563 187.71125 99.63453125 187.5625 100.4765625 C186.41470209 106.27704121 184.33162198 111.57841297 182 117 C181.34 117 180.68 117 180 117 C179.731875 117.721875 179.46375 118.44375 179.1875 119.1875 C177.10771984 124.11329511 175.0567766 127.26670366 170.6953125 130.49609375 C168.77982423 132.10652549 168.77982423 132.10652549 166.7421875 134.859375 C163.94201848 138.28419711 160.73448287 140.49440753 157 142.8125 C156.39671875 143.20630859 155.7934375 143.60011719 155.171875 144.00585938 C151.81910932 146.13049241 148.96062908 147.54242732 145 148 C145.51383787 150.31227041 146.15220624 152.36708563 147.0625 154.5625 C148 157 148 157 148 160 C148.66 160 149.32 160 150 160 C151.98 164.455 151.98 164.455 154 169 C149.25 172 149.25 172 147 172 C147 172.66 147 173.32 147 174 C146.030625 174.28875 145.06125 174.5775 144.0625 174.875 C140.89335797 175.64214682 140.89335797 175.64214682 140 178 C138.21788887 179.11271848 136.3981925 180.1655922 134.5625 181.1875 C130.49910666 183.50324905 126.61047227 185.89595389 122.8125 188.625 C119.01362615 191.35333774 115.14906388 193.6894204 111.0078125 195.859375 C108.93250415 196.97241104 108.93250415 196.97241104 106.9921875 198.578125 C104.95319399 200.03340665 103.44335545 200.56368653 101 201 C100.3291288 199.3767313 99.66342971 197.75132422 99 196.125 C98.62875 195.22007812 98.2575 194.31515625 97.875 193.3828125 C97 191 97 191 97 189 C96.34 189 95.68 189 95 189 C94.34 185.7 93.68 182.4 93 179 C92.34 179 91.68 179 91 179 C89.99394407 176.39802798 88.99497475 173.79370638 88 171.1875 C87.71382813 170.44951172 87.42765625 169.71152344 87.1328125 168.95117188 C86.86210938 168.23896484 86.59140625 167.52675781 86.3125 166.79296875 C86.06113281 166.1383667 85.80976562 165.48376465 85.55078125 164.80932617 C85 163 85 163 85 160 C84.34 160 83.68 160 83 160 C82.01 157.525 82.01 157.525 81 155 C71.76 155 62.52 155 53 155 C53 183.05 53 211.1 53 240 C35.51 240 18.02 240 0 240 C0 160.8 0 81.6 0 0 Z M52 49 C52.33 67.81 52.66 86.62 53 106 C66.055625 106.0928125 66.055625 106.0928125 79.375 106.1875 C82.10313965 106.21481201 84.8312793 106.24212402 87.64208984 106.27026367 C89.83170124 106.27903476 92.02131757 106.28667722 94.2109375 106.29296875 C95.32573486 106.30831665 96.44053223 106.32366455 97.58911133 106.33947754 C106.15005296 106.34231166 113.38417432 104.97893518 121 101 C121 100.34 121 99.68 121 99 C121.7425 98.79375 122.485 98.5875 123.25 98.375 C126.96424375 96.51787812 128.06697747 94.66607721 130 91 C130.6605122 88.66068594 131.17036471 86.34416401 131.60546875 83.953125 C132 82 132 82 133 80 C133.40889404 73.04880137 131.69125992 67.34368411 129 61 C128.34 61 127.68 61 127 61 C126.773125 60.4225 126.54625 59.845 126.3125 59.25 C124.57150366 56.26543485 122.93213167 54.84851779 120 53 C117.29796884 52.39342158 114.77856238 52.18837711 112 52 C112 51.34 112 50.68 112 50 C104.08744309 49.23071455 96.2760631 48.86064039 88.328125 48.90234375 C87.39661621 48.90335083 86.46510742 48.90435791 85.50537109 48.90539551 C82.08690121 48.91055473 78.66844912 48.92451477 75.25 48.9375 C67.5775 48.958125 59.905 48.97875 52 49 Z " fill="#E14226" transform="translate(21,0)"/>
<path d="M0 0 C2.6875 1.9375 2.6875 1.9375 5 4 C5.99 4.495 5.99 4.495 7 5 C7 5.66 7 6.32 7 7 C7.58523437 7.04511719 8.17046875 7.09023437 8.7734375 7.13671875 C12.13321913 8.43937092 12.92001207 10.70671803 14.625 13.8125 C15.51058594 15.39998047 15.51058594 15.39998047 16.4140625 17.01953125 C17.19910156 18.49486328 17.19910156 18.49486328 18 20 C18.59941406 21.05767578 18.59941406 21.05767578 19.2109375 22.13671875 C20 24 20 24 20 28 C19.360625 28.103125 18.72125 28.20625 18.0625 28.3125 C17.381875 28.539375 16.70125 28.76625 16 29 C15.505 30.485 15.505 30.485 15 32 C13.14453125 33.46484375 13.14453125 33.46484375 10.8125 34.9375 C10.00296875 35.45441406 9.1934375 35.97132813 8.359375 36.50390625 C7.58078125 36.99761719 6.8021875 37.49132812 6 38 C4.8520586 38.7886068 3.70584911 39.57974975 2.5625 40.375 C0 42 0 42 -2 42 C-2 42.66 -2 43.32 -2 44 C-15.86 44 -29.72 44 -44 44 C-44 43.34 -44 42.68 -44 42 C-45.03060547 41.80083984 -45.03060547 41.80083984 -46.08203125 41.59765625 C-46.98308594 41.42105469 -47.88414062 41.24445313 -48.8125 41.0625 C-49.70582031 40.88847656 -50.59914062 40.71445313 -51.51953125 40.53515625 C-54 40 -54 40 -57 39 C-57 38.34 -57 37.68 -57 37 C-57.66 37 -58.32 37 -59 37 C-59 36.34 -59 35.68 -59 35 C-56.89980986 33.52690889 -54.82232271 32.18690365 -52.625 30.875 C-51.72007812 30.31619141 -51.72007812 30.31619141 -50.796875 29.74609375 C-46.27034684 27 -46.27034684 27 -44 27 C-44 26.34 -44 25.68 -44 25 C-42.02 24.34 -40.04 23.68 -38 23 C-38 22.34 -38 21.68 -38 21 C-36.15277176 19.77735292 -34.24452115 18.64620306 -32.3125 17.5625 C-31.25675781 16.96566406 -30.20101562 16.36882812 -29.11328125 15.75390625 C-28.08589844 15.17511719 -27.05851562 14.59632813 -26 14 C-22.339508 12.13485878 -22.339508 12.13485878 -20 9 C-18 8 -16 7 -14 6 C-11.72283519 4.43519958 -9.47493782 2.83992771 -7.24609375 1.20703125 C-4.57387789 -0.22899432 -2.99330011 -0.37171701 0 0 Z " fill="#DF4226" transform="translate(215,212)"/>
<path d="M0 0 C1.3125 2.0625 1.3125 2.0625 2 4 C2.66 4 3.32 4 4 4 C5.53851766 5.71951974 7.00731759 7.50187497 8.4375 9.3125 C11.43178731 13.15470832 11.43178731 13.15470832 14.78515625 16.66796875 C16 18 16 18 16 21 C14.68 21.33 13.36 21.66 12 22 C12 22.66 12 23.32 12 24 C10.15277176 25.22264708 8.24452115 26.35379694 6.3125 27.4375 C4.72888672 28.33275391 4.72888672 28.33275391 3.11328125 29.24609375 C1.57220703 30.11427734 1.57220703 30.11427734 0 31 C-0.91394531 31.56847656 -1.82789063 32.13695312 -2.76953125 32.72265625 C-5 34 -5 34 -7 34 C-7 34.66 -7 35.32 -7 36 C-9.22687976 37.29574871 -11.45633175 38.58667308 -13.6875 39.875 C-14.31333984 40.23980469 -14.93917969 40.60460937 -15.58398438 40.98046875 C-18.98194942 42.93741197 -22.30067619 44.65607739 -26 46 C-26 46.66 -26 47.32 -26 48 C-28.51953125 49.7265625 -28.51953125 49.7265625 -31.8125 51.625 C-32.89144531 52.25664062 -33.97039062 52.88828125 -35.08203125 53.5390625 C-38 55 -38 55 -41 55 C-41.33 53.35 -41.66 51.7 -42 50 C-42.66 50 -43.32 50 -44 50 C-44.66 48.02 -45.32 46.04 -46 44 C-46.66 44 -47.32 44 -48 44 C-48.66 42.02 -49.32 40.04 -50 38 C-50.66 38 -51.32 38 -52 38 C-54.06649926 33.62388393 -54.06649926 33.62388393 -53.78515625 30.984375 C-52.77846579 28.44010258 -51.7305675 27.84603857 -49.375 26.5 C-48.72273437 26.1184375 -48.07046875 25.736875 -47.3984375 25.34375 C-45.49187388 24.27557755 -43.58404613 23.20966147 -41.67578125 22.14453125 C-37.92844083 20.00305057 -34.37647972 17.61815019 -30.8125 15.1875 C-12.72599638 3 -12.72599638 3 -9 3 C-9 2.34 -9 1.68 -9 1 C-5.69708067 -1.07961587 -3.69218461 -1.36027854 0 0 Z " fill="#DF4126" transform="translate(184,183)"/>
<path d="M0 0 C-3.81846713 2.65586144 -6.35256292 3.37032615 -10.98364258 3.34057617 C-12.16448929 3.34034958 -13.345336 3.34012299 -14.56196594 3.33988953 C-16.45908577 3.31666374 -16.45908577 3.31666374 -18.39453125 3.29296875 C-19.69702316 3.28872391 -20.99951508 3.28447906 -22.34147644 3.28010559 C-25.79232267 3.26869012 -29.24278583 3.23925217 -32.69348145 3.20599365 C-36.21942972 3.17522108 -39.74544032 3.16158497 -43.27148438 3.14648438 C-50.18114624 3.11437868 -57.09055469 3.06322281 -64 3 C-64 2.67 -64 2.34 -64 2 C-63.00521133 1.98786972 -63.00521133 1.98786972 -61.99032593 1.97549438 C-55.07945787 1.88934793 -48.16887331 1.7898396 -41.25830078 1.68261719 C-38.68022426 1.64436583 -36.10209508 1.60950629 -33.52392578 1.578125 C-29.81523838 1.53239167 -26.10691237 1.47440959 -22.3984375 1.4140625 C-21.24822113 1.40251129 -20.09800476 1.39096008 -18.91293335 1.37905884 C-12.95958224 1.26959756 -5.31544766 -2.04440295 0 0 Z " fill="#BA4E3A" transform="translate(138,104)"/>
<path d="M0 0 C6.42315889 3.50354121 11.66766554 8.10802514 16 14 C15.67 14.66 15.34 15.32 15 16 C13.35 15.67 11.7 15.34 10 15 C10 13.68 10 12.36 10 11 C9.01 10.67 8.02 10.34 7 10 C7 8.68 7 7.36 7 6 C4.69 5.67 2.38 5.34 0 5 C0 3.35 0 1.7 0 0 Z " fill="#D04434" transform="translate(180,17)"/>
<path d="M0 0 C0.66 0.33 1.32 0.66 2 1 C2.703125 3.65234375 2.703125 3.65234375 3.25 6.9375 C3.53617188 8.55978516 3.53617188 8.55978516 3.828125 10.21484375 C3.88484375 11.13394531 3.9415625 12.05304687 4 13 C3.34 13.66 2.68 14.32 2 15 C2 13.68 2 12.36 2 11 C1.01 11 0.02 11 -1 11 C-1.02688151 9.35425434 -1.04634123 7.70838587 -1.0625 6.0625 C-1.07410156 5.14597656 -1.08570313 4.22945312 -1.09765625 3.28515625 C-1 1 -1 1 0 0 Z " fill="#D24935" transform="translate(205,51)"/>
<path d="M0 0 C2.0625 0.4375 2.0625 0.4375 4 1 C-0.56412219 4.48483077 -4.32855427 4.366774 -9.8125 4.1875 C-10.60076172 4.17396484 -11.38902344 4.16042969 -12.20117188 4.14648438 C-14.13441169 4.11133456 -16.06729682 4.05753361 -18 4 C-18 3.67 -18 3.34 -18 3 C-16.78441406 2.86722656 -15.56882812 2.73445313 -14.31640625 2.59765625 C-12.73174516 2.41949909 -11.1471111 2.24110125 -9.5625 2.0625 C-8.35883789 1.93198242 -8.35883789 1.93198242 -7.13085938 1.79882812 C-3.24423336 1.69451606 -3.24423336 1.69451606 0 0 Z " fill="#C84632" transform="translate(134,103)"/>
<path d="M0 0 C0 3 0 3 -2.375 5.6875 C-5 8 -5 8 -7 8 C-7.33 8.66 -7.66 9.32 -8 10 C-8.33 8.35 -8.66 6.7 -9 5 C-8.071875 4.54625 -7.14375 4.0925 -6.1875 3.625 C-2.96078611 2.0578367 -2.96078611 2.0578367 0 0 Z " fill="#D14023" transform="translate(146,203)"/>
<path d="M0 0 C0.66 0 1.32 0 2 0 C1.43454163 3.95820859 0.19097652 6.6659053 -2 10 C-3.60920937 6.78158126 -2.0749168 4.28446801 -1 1 C-0.67 0.67 -0.34 0.34 0 0 Z " fill="#D7463A" transform="translate(154,80)"/>
<path d="M0 0 C0.66 0.66 1.32 1.32 2 2 C1.63723355 4.82957829 0.90305236 7.29084291 0 10 C-0.66 10 -1.32 10 -2 10 C-2.17942163 6.05272412 -2.09350689 3.4019487 0 0 Z " fill="#E3332D" transform="translate(155,70)"/>
<path d="M0 0 C2.31 0.66 4.62 1.32 7 2 C3.375 5 3.375 5 0 5 C-0.5625 3.0625 -0.5625 3.0625 -1 1 C-0.67 0.67 -0.34 0.34 0 0 Z " fill="#CC411B" transform="translate(143,233)"/>
<path d="M0 0 C0 0.99 0 1.98 0 3 C-2.25 5.25 -2.25 5.25 -5 7 C-6.32 6.67 -7.64 6.34 -9 6 C-6.03 4.02 -3.06 2.04 0 0 Z " fill="#D7413A" transform="translate(209,213)"/>
<path d="M0 0 C2.475 0.495 2.475 0.495 5 1 C5 2.98 5 4.96 5 7 C4.01 7.495 4.01 7.495 3 8 C2.01 5.36 1.02 2.72 0 0 Z " fill="#D34733" transform="translate(107,165)"/>
<path d="M0 0 C2.5 1.8125 2.5 1.8125 5 4 C5 4.99 5 5.98 5 7 C4.01 7.33 3.02 7.66 2 8 C1.34 5.36 0.68 2.72 0 0 Z " fill="#CE4136" transform="translate(195,197)"/>
<path d="M0 0 C1.32 0.33 2.64 0.66 4 1 C1.63707344 3.52588702 0.33537489 4.88820837 -3 6 C-2 4 -1 2 0 0 Z " fill="#D24430" transform="translate(153,178)"/>
<path d="M0 0 C2.475 0.495 2.475 0.495 5 1 C5.33 2.65 5.66 4.3 6 6 C5.01 5.67 4.02 5.34 3 5 C2.67 4.34 2.34 3.68 2 3 C1.01 3.495 1.01 3.495 0 4 C0 2.68 0 1.36 0 0 Z " fill="#D84723" transform="translate(182,22)"/>
<path d="" fill="#3D0000" transform="translate(0,0)"/>
<path d="" fill="#D62C35" transform="translate(0,0)"/>
<path d="" fill="#B53041" transform="translate(0,0)"/>
<path d="" fill="#DC344B" transform="translate(0,0)"/>
<path d="" fill="#1B0000" transform="translate(0,0)"/>
<path d="" fill="#170000" transform="translate(0,0)"/>
<path d="" fill="#DD3429" transform="translate(0,0)"/>
<path d="" fill="#8C4A3A" transform="translate(0,0)"/>
<path d="" fill="#350000" transform="translate(0,0)"/>
<path d="" fill="#CC2E34" transform="translate(0,0)"/>
<path d="" fill="#1A0000" transform="translate(0,0)"/>
<path d="" fill="#240000" transform="translate(0,0)"/>
</svg>
